<svg xmlns="http://www.w3.org/2000/svg" version="1.1" xmlns:xlink="http://www.w3.org/1999/xlink" width="2000" height="1500" viewBox="0 0 2000 1500"><rect width="2000" height="1500" x="0" y="0" id="background" stroke="transparent" fill="#ffffff"></rect><svg xml:space="preserve" width="1500" height="1125" data-version="2" data-id="lg_O2QMbtWM2zaAaF5pZH" viewBox="0 0 336 250" x="250" y="187.5"><rect width="100%" height="100%" fill="transparent"></rect><path fill="#3a3a3a" d="M316.637 2.461H15.543A11.845 11.845 0 0 0 3.697 14.306v217.568a11.845 11.845 0 0 0 11.846 11.845h301.094a11.845 11.845 0 0 0 11.846-11.845V14.306a11.845 11.845 0 0 0-11.846-11.845M15.543 7.199h301.094c3.936 0 7.107 3.21 7.107 7.107v34.657l-.764-.077H9.276l-.84.077V14.306c0-3.897 3.171-7.107 7.107-7.107m308.201 219.593q-.076.688-.764.764H9.276a.764.764 0 0 1-.84-.764V54.427c0-.459.382-.765.802-.765h313.704q.764.039.802.765zm-7.107 12.189H15.543c-3.821 0-6.878-3.019-7.07-6.763l.765.076h313.704l.764-.076a7.069 7.069 0 0 1-7.03 6.763"></path><path fill="#3a3a3a" d="M82.716 38.226a10.068 10.068 0 1 0 0-20.137 10.068 10.068 0 0 0 0 20.137m0-15.36a5.35 5.35 0 1 1 1.276 10.622 5.35 5.35 0 0 1-1.276-10.623m-25.677 15.36a10.068 10.068 0 1 0 0-20.136 10.068 10.068 0 0 0 0 20.137m0-15.36a5.35 5.35 0 1 1 1.276 10.622 5.35 5.35 0 0 1-1.276-10.623m-25.677 15.36a10.068 10.068 0 1 0 0-20.136 10.068 10.068 0 0 0 0 20.137m0-15.36a5.35 5.35 0 1 1 1.276 10.622 5.35 5.35 0 0 1-1.276-10.623M76.679 183.92q-3.63 0-8.789-4.89c-6.113-5.808-8.215-9.056-4.585-12.992l33.625-33.701-33.51-33.549c-2.599-2.56-2.178-4.585-1.529-5.999.917-2.063 3.057-4.28 5.617-6.8 3.172-3.172 5.923-5.885 8.56-5.885q1.948 0 3.973 1.987l44.973 44.935c1.147.955 1.987 2.521 2.14 4.317.191 2.064-.497 4.433-1.72 5.885l-45.202 45.088q-1.643 1.566-3.553 1.528M66.17 94.624q-.115 0 .573.764l35.191 35.23a2.352 2.352 0 0 1 0 3.324l-35.191 35.344-.497.65c0 .19.459 1.451 4.93 5.655 3.744 3.553 5.425 3.591 5.502 3.591v2.37-2.37l.267-.19 44.973-44.974a3.821 3.821 0 0 0 .535-2.254 1.528 1.528 0 0 0-.65-1.261L76.718 85.415q-.84-.688-.84-.611c-.727.229-3.401 2.904-5.006 4.508-2.025 2.025-4.127 4.127-4.7 5.388m122.195 110.312H129.79c-6.113 0-7.336-4.738-7.336-11.845s1.223-11.769 7.337-11.769h58.575c5.732 0 6.878 4.165 6.878 11.807 0 7.833-1.07 11.807-6.878 11.807m-58.576-18.875c-1.413 0-2.636 0-2.636 7.068s1.223 7.07 2.637 7.07h58.575c1.376 0 2.102 0 2.102-7.07s-.84-7.069-2.102-7.069z"></path></svg></svg>